<?xml version="1.0" standalone="no"?>
<!DOCTYPE svg PUBLIC "-//W3C//DTD SVG 20010904//EN"
 "http://www.w3.org/TR/2001/REC-SVG-20010904/DTD/svg10.dtd">
<svg version="1.0" xmlns="http://www.w3.org/2000/svg"
 width="512.000000pt" height="512.000000pt" viewBox="0 0 512.000000 512.000000"
 preserveAspectRatio="xMidYMid meet">
<metadata>
Created by potrace 1.14, written by Peter Selinger 2001-2017
</metadata>
<g transform="translate(0.000000,512.000000) scale(0.100000,-0.100000)"
fill="#000000" stroke="none">
<path d="M2421 4840 c-79 -36 -136 -97 -160 -172 -7 -21 -14 -38 -15 -38 -2 0
-18 8 -37 17 -23 12 -57 18 -109 18 -63 0 -85 -5 -129 -28 l-53 -27 -39 39
c-70 73 -159 101 -256 81 -136 -29 -226 -137 -229 -274 l-1 -70 -34 -4 c-51
-5 -130 -44 -168 -83 -19 -19 -45 -58 -59 -87 -20 -44 -23 -65 -21 -128 l4
-75 -40 -18 c-115 -53 -183 -195 -154 -317 23 -100 109 -188 209 -215 l45 -12
-31 -8 c-42 -12 -120 -82 -147 -133 -19 -36 -22 -58 -24 -181 -1 -77 2 -167 7
-200 4 -33 11 -91 14 -130 3 -38 9 -88 12 -110 l6 -40 -160 -1 c-153 0 -162
-1 -196 -25 -20 -13 -45 -42 -56 -63 -18 -37 -19 -62 -17 -552 2 -503 2 -513
23 -541 11 -15 36 -38 54 -50 32 -22 41 -23 251 -23 l218 0 6 -32 c3 -18 12
-105 20 -193 20 -213 25 -264 30 -300 2 -16 6 -64 10 -105 3 -41 8 -82 10 -90
2 -8 7 -58 10 -110 12 -165 45 -229 137 -274 l53 -25 605 -1 c333 0 646 -1
695 -1 50 0 271 1 493 1 328 0 411 3 447 15 33 12 50 13 72 4 75 -29 187 -3
247 57 64 64 86 175 50 263 -14 36 -94 121 -114 121 -4 0 -10 21 -14 47 -3 27
-16 63 -27 82 -23 39 -23 74 6 326 2 22 7 72 10 110 10 114 -15 103 238 107
215 3 223 4 253 27 66 49 65 40 62 613 -3 504 -4 517 -24 545 -40 55 -79 65
-245 65 l-150 1 6 81 c3 45 8 92 10 106 19 132 26 353 13 414 -21 97 -117 191
-208 203 l-40 6 45 39 c24 21 56 64 72 96 24 49 28 69 28 142 -1 63 -6 94 -19
120 -33 63 -74 106 -128 135 -45 25 -64 29 -130 30 l-77 0 34 32 c76 71 104
191 70 294 -25 74 -105 152 -177 174 -97 29 -181 15 -258 -42 l-44 -34 -19 37
c-23 45 -68 88 -122 117 -43 23 -159 30 -222 13 -30 -8 -33 -7 -33 15 0 37
-43 121 -81 158 -77 78 -212 104 -308 61z"/>
<path d="M500 910 c-61 -11 -105 -36 -142 -79 l-35 -41 -55 6 c-99 12 -197
-40 -246 -131 -23 -41 -23 -169 0 -210 24 -44 78 -96 118 -112 46 -20 123 -27
158 -15 23 8 33 6 53 -9 42 -33 92 -50 149 -51 130 -1 229 92 236 224 2 31 10
73 19 95 32 77 13 191 -43 249 -53 56 -142 86 -212 74z"/>
<path d="M4572 908 c-99 -17 -192 -127 -192 -227 0 -26 -8 -71 -19 -100 -36
-102 1 -214 88 -271 107 -72 223 -59 307 32 l40 43 79 0 c91 0 126 14 180 72
88 94 80 257 -17 338 -61 52 -128 69 -202 53 -38 -8 -49 -7 -62 6 -43 43 -131
67 -202 54z"/>
</g>
</svg>
