<?xml version="1.0" encoding="UTF-8" standalone="no"?>
<svg
   viewBox="0 0 282.82 53.279999"
   fill="#000000"
   data-color-origin="#000000"
   data-color-type="fill"
   version="1.1"
   id="svg1"
   width="282.82001"
   height="53.279999"
   xmlns:inkscape="http://www.inkscape.org/namespaces/inkscape"
   xmlns:sodipodi="http://sodipodi.sourceforge.net/DTD/sodipodi-0.dtd"
   xmlns="http://www.w3.org/2000/svg"
   xmlns:svg="http://www.w3.org/2000/svg">
  <sodipodi:namedview
     id="namedview1"
     pagecolor="#ffffff"
     bordercolor="#000000"
     borderopacity="0.25"
     inkscape:showpageshadow="2"
     inkscape:pageopacity="0.0"
     inkscape:pagecheckerboard="0"
     inkscape:deskcolor="#d1d1d1" />
  <defs
     id="defs1" />
  <path
     fill="#ffffff"
     d="M 37.95,47.52 51.56,15.05 h 4.82 L 40.25,52.56 H 36 L 28.16,33.91 20.38,52.56 H 16.13 L 0,15.05 H 4.76 L 18.44,47.52 25.35,30.6 19.01,15.12 h 4.39 l 4.76,12.17 4.82,-12.17 H 37.3 L 31.04,30.6 Z M 58.9,41.76 v 0 q 0,-3.53 2.02,-6.08 2.01,-2.56 5.58,-3.96 3.56,-1.41 8.24,-1.41 v 0 q 2.74,0 5.69,0.43 2.95,0.44 5.25,1.3 v 0 -3.17 q 0,-4.75 -2.8,-7.56 Q 80.07,18.5 75.1,18.5 v 0 q -3.02,0 -5.94,1.12 -2.92,1.12 -6.08,3.28 v 0 L 61.2,19.44 q 3.68,-2.52 7.2,-3.78 3.53,-1.26 7.2,-1.26 v 0 q 6.92,0 10.95,3.96 4.03,3.96 4.03,10.94 v 0 17.36 q 0,1 0.43,1.47 0.43,0.47 1.37,0.54 v 0 3.89 q -0.79,0.07 -1.37,0.14 -0.57,0.08 -0.86,0 v 0 q -1.8,-0.07 -2.74,-1.15 -0.93,-1.08 -1.01,-2.3 v 0 l -0.07,-2.74 q -2.52,3.24 -6.55,5.01 -4.03,1.76 -8.21,1.76 v 0 q -3.6,0 -6.51,-1.55 -2.92,-1.55 -4.54,-4.17 -1.62,-2.63 -1.62,-5.8 z m 25.13,2.88 v 0 q 0.79,-1.01 1.22,-1.94 0.43,-0.94 0.43,-1.66 v 0 -5.47 q -2.44,-0.94 -5.07,-1.44 -2.63,-0.51 -5.29,-0.51 v 0 q -5.26,0 -8.5,2.09 -3.24,2.09 -3.24,5.69 v 0 q 0,2.09 1.08,3.92 1.08,1.84 3.17,3.03 2.09,1.19 4.89,1.19 v 0 q 3.53,0 6.59,-1.37 3.06,-1.37 4.72,-3.53 z m 33.55,2.16 1.3,3.96 q -0.58,0.22 -1.8,0.79 -1.23,0.58 -2.96,1.01 -1.72,0.43 -3.74,0.43 v 0 q -2.09,0 -3.92,-0.79 -1.84,-0.79 -2.92,-2.41 -1.08,-1.62 -1.08,-4 v 0 -26.85 h -5.18 v -3.89 h 5.18 V 2.38 h 4.9 V 15.05 H 116 v 3.89 h -8.64 v 25.48 q 0.14,2.02 1.47,3.03 1.33,1.01 3.06,1.01 v 0 q 2.02,0 3.67,-0.69 1.66,-0.68 2.02,-0.97 z m 23.04,6.48 v 0 q -4.1,0 -7.52,-1.55 -3.42,-1.55 -5.98,-4.28 -2.56,-2.74 -3.96,-6.27 -1.4,-3.52 -1.4,-7.48 v 0 q 0,-5.33 2.37,-9.72 2.38,-4.4 6.63,-6.99 4.24,-2.59 9.79,-2.59 v 0 q 5.25,0 9.29,2.41 4.03,2.41 5.97,6.52 v 0 l -4.75,1.51 q -1.58,-2.88 -4.43,-4.5 -2.84,-1.62 -6.3,-1.62 v 0 q -3.74,0 -6.84,1.94 -3.09,1.95 -4.93,5.33 -1.84,3.39 -1.84,7.71 v 0 q 0,4.24 1.88,7.7 1.87,3.46 4.96,5.51 3.1,2.05 6.84,2.05 v 0 q 2.45,0 4.72,-0.86 2.27,-0.87 3.96,-2.34 1.69,-1.48 2.27,-3.21 v 0 l 4.82,1.44 q -1.01,2.67 -3.35,4.79 -2.34,2.12 -5.47,3.31 -3.13,1.19 -6.73,1.19 z M 195.41,30.6 v 21.96 h -4.89 V 31.61 q 0,-6.34 -2.24,-9.54 -2.23,-3.21 -6.4,-3.21 v 0 q -2.74,0 -5.44,1.41 -2.7,1.4 -4.75,3.81 -2.05,2.42 -2.92,5.51 v 0 22.97 h -4.89 V 0 h 4.89 v 23.54 q 2.23,-4.17 6.23,-6.66 4,-2.48 8.53,-2.48 v 0 q 3.24,0 5.51,1.15 2.27,1.15 3.67,3.35 1.41,2.2 2.05,5.11 0.65,2.92 0.65,6.59 z m 26.64,22.68 v 0 q -4.03,0 -7.49,-1.55 -3.45,-1.55 -5.97,-4.25 -2.52,-2.7 -3.93,-6.22 -1.4,-3.53 -1.4,-7.56 v 0 q 0,-5.26 2.41,-9.65 2.41,-4.39 6.66,-7.02 4.25,-2.63 9.65,-2.63 v 0 q 5.54,0 9.68,2.66 4.14,2.67 6.52,7.02 2.38,4.36 2.38,9.54 v 0 q 0,0.58 0,1.12 0,0.54 -0.08,0.83 v 0 h -32.11 q 0.36,4.03 2.27,7.16 1.91,3.13 4.97,4.97 3.06,1.84 6.66,1.84 v 0 q 3.67,0 6.95,-1.88 3.27,-1.87 4.57,-4.89 v 0 l 4.25,1.15 q -1.16,2.66 -3.53,4.82 -2.38,2.16 -5.58,3.35 -3.21,1.19 -6.88,1.19 z M 208.23,32.04 v 0 h 27.72 q -0.29,-4.1 -2.2,-7.2 -1.91,-3.1 -4.97,-4.86 -3.06,-1.76 -6.73,-1.76 v 0 q -3.67,0 -6.69,1.76 -3.03,1.76 -4.94,4.9 -1.9,3.13 -2.19,7.16 z m 56.09,21.24 v 0 q -4.04,0 -7.49,-1.55 -3.46,-1.55 -5.98,-4.25 -2.52,-2.7 -3.92,-6.22 -1.41,-3.53 -1.41,-7.56 v 0 q 0,-5.26 2.42,-9.65 2.41,-4.39 6.66,-7.02 4.24,-2.63 9.64,-2.63 v 0 q 5.55,0 9.69,2.66 4.14,2.67 6.51,7.02 2.38,4.36 2.38,9.54 v 0 q 0,0.58 0,1.12 0,0.54 -0.07,0.83 v 0 h -32.11 q 0.36,4.03 2.26,7.16 1.91,3.13 4.97,4.97 3.06,1.84 6.66,1.84 v 0 q 3.67,0 6.95,-1.88 3.28,-1.87 4.57,-4.89 v 0 l 4.25,1.15 q -1.15,2.66 -3.53,4.82 -2.37,2.16 -5.58,3.35 -3.2,1.19 -6.87,1.19 z M 250.49,32.04 v 0 h 27.72 q -0.29,-4.1 -2.19,-7.2 -1.91,-3.1 -4.97,-4.86 -3.06,-1.76 -6.73,-1.76 v 0 q -3.68,0 -6.7,1.76 -3.02,1.76 -4.93,4.9 -1.91,3.13 -2.2,7.16 z"
     class=" bl-fill-0"
     data-color-origin="#ffffff"
     data-color-type="fill"
     id="path1" />
</svg>
